<?xml version="1.0" encoding="utf-8"?>
<!-- Generator: Adobe Illustrator 19.1.0, SVG Export Plug-In . SVG Version: 6.00 Build 0)  -->
<svg version="1.1" baseProfile="tiny" id="Layer_1" xmlns="http://www.w3.org/2000/svg" xmlns:xlink="http://www.w3.org/1999/xlink"
	 x="0px" y="0px" viewBox="0 0 160 160" xml:space="preserve">
<path fill="#F04B23" d="M80,0C35.8,0,0,35.8,0,80s35.8,80,80,80c44.2,0,80-35.8,80-80S124.2,0,80,0z M125.4,96.9H86.3v0h-5.9
	c3.6,3.6,5.9,8.5,5.9,14v0.1c0,0.1,0,0.2,0,0.3h0v2.4h-26L34.6,80.8l25.8-32.9h26v2.4h0c0,0.1,0,0.2,0,0.3v0.1
	c0,5.5-2.3,10.4-5.9,14h5.9h39.1V96.9z"/>
</svg>
