<?xml version="1.0" encoding="utf-8"?>
<!-- Generator: Adobe Illustrator 19.1.0, SVG Export Plug-In . SVG Version: 6.00 Build 0)  -->
<svg version="1.1" baseProfile="tiny" id="Layer_1" xmlns="http://www.w3.org/2000/svg" xmlns:xlink="http://www.w3.org/1999/xlink"
	 x="0px" y="0px" viewBox="0 0 160 160" xml:space="preserve">
<g>
	<polygon fill="#FFFFFF" points="49.1,42.9 49.1,36.6 27.7,36.6 27.7,48.5 27.5,48.8 27.7,49.1 27.7,60.5 27.5,60.9 27.7,61.2 
		27.7,67 34.8,67 34.8,61.2 35,60.9 34.8,60.5 34.8,55 45.6,55 45.6,48.6 34.8,48.6 34.8,42.9 	"/>
	<path fill="#FFFFFF" d="M7.3,49.1l0.2-0.3l-0.2-0.3v-5.6h7.2v5.6l-0.2,0.3l0.2,0.3v11.6H7.3V49.1z M0.2,36.6v11.9L0,48.8l0.2,0.3
		v11.4L0,60.9l0.2,0.3V67h21.5v-5.9l0.2-0.3l-0.2-0.3V49.1l0.2-0.3l-0.2-0.3V36.6H0.2z"/>
	<path fill="#FFFFFF" d="M34.8,97.1V85.5l0.2-0.3l-0.2-0.3v-5.6H42v5.6l-0.2,0.3l0.2,0.3v11.6H34.8z M49.1,85.5l0.2-0.3l-0.2-0.3
		V72.9H27.7v11.9l-0.2,0.3l0.2,0.3v11.4l-0.2,0.3l0.2,0.3v5.9h21.5v-5.9l0.2-0.3l-0.2-0.3V85.5z"/>
	<polygon fill="#FFFFFF" points="14.4,72.9 10.9,78.8 7.4,72.9 0.2,72.9 0.2,84.9 0,85.2 0.2,85.5 0.2,96.9 0,97.2 0.2,97.5 
		0.2,103.4 7.3,103.4 7.3,97.5 7.5,97.2 7.3,96.9 7.3,85.5 10.9,91.5 14.5,85.5 14.5,96.9 14.3,97.2 14.5,97.5 14.5,103.4 
		21.7,103.4 21.7,97.5 21.8,97.2 21.7,96.9 21.7,85.5 21.8,85.2 21.7,84.9 21.7,72.9 	"/>
	<polygon fill="#FFFFFF" points="0,109.5 0,115.9 3.4,115.9 3.4,121.4 3.3,121.8 3.4,122.1 3.4,133.7 0,133.7 0,140 13.8,140 
		13.8,133.7 10.6,133.7 10.6,122.1 10.8,121.8 10.6,121.4 10.6,115.9 13.8,115.9 13.8,109.5 	"/>
	<polygon fill="#FFFFFF" points="80.7,97.1 80.7,103.4 94.4,103.4 94.4,97.1 91,97.1 91,91.5 91.2,91.2 91,90.9 91,79.3 94.4,79.3 
		94.4,72.9 80.7,72.9 80.7,79.3 83.9,79.3 83.9,90.9 83.7,91.2 83.9,91.5 83.9,97.1 	"/>
	<polygon fill="#FFFFFF" points="34.1,109.5 30.6,115.4 27.1,109.5 19.9,109.5 19.9,121.4 19.7,121.8 19.9,122.1 19.9,133.5 
		19.7,133.8 19.9,134.1 19.9,140 27.1,140 27.1,134.1 27.2,133.8 27.1,133.5 27.1,122.1 30.6,128.1 34.2,122.1 34.2,133.5 34,133.8 
		34.2,134.1 34.2,140 41.4,140 41.4,134.1 41.6,133.8 41.4,133.5 41.4,122.1 41.5,121.8 41.4,121.4 41.4,109.5 	"/>
	<polygon fill="#FFFFFF" points="42.2,0 42.2,11.9 42,12.2 42.2,12.5 42.2,24.1 35,24.1 35,12.5 35.2,12.2 35,11.9 35,0 27.9,0 
		27.9,11.9 27.7,12.2 27.9,12.5 27.9,24 27.7,24.3 27.9,24.6 31.3,30.5 49.3,30.5 49.3,24.6 49.5,24.3 49.3,24 49.3,12.5 49.5,12.2 
		49.3,11.9 49.3,0 	"/>
	<polygon fill="#FFFFFF" points="14.4,0 10.9,5.9 7.4,0 0.2,0 0.2,11.9 0,12.2 0.2,12.5 0.2,24 0,24.3 0.2,24.6 0.2,30.5 7.3,30.5 
		7.3,24.6 7.5,24.3 7.3,24 7.3,12.5 10.9,18.6 14.5,12.5 14.5,24 14.3,24.3 14.5,24.6 14.5,30.5 21.7,30.5 21.7,24.6 21.9,24.3 
		21.7,24 21.7,12.5 21.9,12.2 21.7,11.9 21.7,0 	"/>
	<polygon fill="#FFFFFF" points="55.5,0 55.5,5.9 55.3,6.2 55.5,6.5 55.5,18.4 69.8,18.4 69.8,24.1 55.5,24.1 55.5,30.5 77,30.5 
		77,18.6 77.2,18.3 77,17.9 77,12.1 62.7,12.1 62.7,6.3 77,6.3 77,0 	"/>
	<polygon fill="#FFFFFF" points="83.2,0 83.2,5.9 83,6.2 83.2,6.5 83.2,17.9 83,18.3 83.2,18.6 83.2,30.5 104.7,30.5 104.7,24.1 
		90.4,24.1 90.4,18.4 101.1,18.4 101.1,12.1 90.4,12.1 90.4,6.3 104.7,6.3 104.7,0 	"/>
	<polygon fill="#FFFFFF" points="125,0 125,11.9 124.8,12.2 125,12.5 125,24.1 117.8,24.1 117.8,12.5 118,12.2 117.8,11.9 117.8,0 
		110.7,0 110.7,11.9 110.5,12.2 110.7,12.5 110.7,24 110.5,24.3 110.7,24.6 114.2,30.5 132.1,30.5 132.1,24.6 132.3,24.3 132.1,24 
		132.1,12.5 132.3,12.2 132.1,11.9 132.1,0 	"/>
	<polygon fill="#FFFFFF" points="152.6,0 149.1,5.9 145.6,0 138.3,0 138.3,11.9 138.2,12.2 138.3,12.5 138.3,24 138.2,24.3 
		138.3,24.6 138.3,30.5 145.5,30.5 145.5,24.6 145.7,24.3 145.5,24 145.5,12.5 149.1,18.6 152.7,12.5 152.7,24 152.5,24.3 
		152.7,24.6 152.7,30.5 159.8,30.5 159.8,24.6 160,24.3 159.8,24 159.8,12.5 160,12.2 159.8,11.9 159.8,0 	"/>
	<polygon fill="#FFFFFF" points="62.8,36.6 84.3,36.6 84.3,42.9 77.1,42.9 77.1,54.5 77.3,54.8 77.1,55.1 77.1,67 76.5,67 70.6,67 
		69.9,67 69.9,55.1 69.8,54.8 69.9,54.5 69.9,42.9 62.8,42.9 	"/>
	<polygon fill="#FFFFFF" points="111,49.1 111,60.5 111.2,60.9 111,61.2 111,67 103.9,67 103.9,61.2 103.7,60.9 103.9,60.5 
		103.9,55 96.7,55 96.7,60.5 96.9,60.9 96.7,61.2 96.7,67 89.6,67 89.6,61.2 89.4,60.9 89.6,60.5 89.6,49.1 89.4,48.8 89.6,48.5 
		89.6,36.6 96.7,36.6 96.7,48.6 103.9,48.6 103.9,36.6 111,36.6 111,48.5 111.2,48.8 	"/>
	<polygon fill="#FFFFFF" points="117,60.5 117,49.1 116.8,48.8 117,48.5 117,36.6 138.4,36.6 138.4,42.9 124.1,42.9 124.1,48.6 
		134.8,48.6 134.8,55 124.1,55 124.1,60.7 138.4,60.7 138.4,67 117,67 117,61.2 116.8,60.9 	"/>
	<polygon fill="#FFFFFF" points="76.6,79.5 76.6,90.9 76.8,91.2 76.6,91.5 69.5,103.4 62.2,103.4 55.1,91.5 55,91.2 55.1,90.9 
		55.1,79.5 55,79.1 55.1,78.8 55.1,72.9 62.3,72.9 62.3,78.8 62.5,79.1 62.3,79.5 62.3,90.9 65.9,96.9 69.5,90.9 69.5,79.5 
		69.3,79.1 69.5,78.8 69.5,72.9 76.6,72.9 76.6,78.8 76.8,79.1 	"/>
	<polygon fill="#FFFFFF" points="121.6,85.5 121.6,96.9 121.8,97.2 121.6,97.5 121.6,103.4 114.5,103.4 114.5,97.5 107.3,85.5 
		107.3,96.9 107.5,97.2 107.3,97.5 107.3,103.4 100.2,103.4 100.2,97.5 100,97.2 100.2,96.9 100.2,85.5 100,85.2 100.2,84.9 
		100.2,72.9 107.4,72.9 114.5,84.9 114.5,72.9 121.6,72.9 121.6,84.9 121.8,85.2 	"/>
	<polygon fill="#FFFFFF" points="149.6,96.9 149.7,97.2 149.6,97.5 149.6,103.4 128.1,103.4 128.1,97.5 127.9,97.2 128.1,96.9 
		128.1,85.5 127.9,85.2 128.1,84.9 128.1,72.9 146,72.9 146,79.3 135.3,79.3 135.3,84.9 135.4,85.2 135.3,85.5 135.3,97.1 
		142.4,97.1 142.4,91.4 138.8,91.4 138.8,85 149.6,85 	"/>
	<path fill="#FFFFFF" d="M54.4,115.9h7.2v5.7h-7.2V115.9z M50.7,109.5l-3.5,5.9l-0.2,0.3l0.2,0.3v11.4l-0.2,0.3l0.2,0.3V140h7.2
		v-12.1h7.2V140h7.2v-11.9l0.2-0.3l-0.2-0.3V116l0.2-0.3l-0.2-0.3l-3.5-5.9H50.7z"/>
	<polygon fill="#FFFFFF" points="75,109.5 75,115.4 74.8,115.7 75,116 75,127.5 74.8,127.8 75,128.1 75,140 96.4,140 96.4,128.1 
		96.6,127.8 96.4,127.5 96.4,121.6 85.7,121.6 85.7,127.9 89.3,127.9 89.3,133.7 82.1,133.7 82.1,128.1 82.3,127.8 82.1,127.5 
		82.1,115.9 92.9,115.9 92.9,109.5 	"/>
	<polygon fill="#FFFFFF" points="102.4,109.5 102.4,121.4 102.2,121.8 102.4,122.1 102.4,133.5 102.2,133.8 102.4,134.1 102.4,140 
		123.8,140 123.8,133.7 109.5,133.7 109.5,127.9 120.3,127.9 120.3,121.6 109.5,121.6 109.5,115.9 123.8,115.9 123.8,109.5 	"/>
</g>
</svg>
