<?xml version="1.0" encoding="utf-8"?>
<!-- Generator: Adobe Illustrator 19.1.0, SVG Export Plug-In . SVG Version: 6.00 Build 0)  -->
<svg version="1.1" baseProfile="tiny" id="Layer_1" xmlns="http://www.w3.org/2000/svg" xmlns:xlink="http://www.w3.org/1999/xlink"
	 x="0px" y="0px" viewBox="0 0 600 600" xml:space="preserve">
<g>
	<path fill="#58B89E" d="M300,0C134.3,0,0,134.3,0,300s134.3,300,300,300s300-134.3,300-300S465.7,0,300,0z M508.7,264.6h-6v0
		c-0.3,0-0.5,0-0.8,0h-0.2c-13.5,0-25.6-5.6-34.4-14.5v14.5V300h0c0,103.7-84.3,188-188,188s-188-84.3-188-188
		c0-103.7,84.3-188,188-188h31.9v82.8h-31.9c-58,0-105.2,47.2-105.2,105.2c0,58,47.2,105.2,105.2,105.2S384.5,358,384.5,300v-35.4h0
		v-14.5c-8.7,8.9-20.9,14.5-34.4,14.5h-0.2c-0.3,0-0.5,0-0.8,0v0h-6v-82.8l82.8-69.9l82.8,69.9V264.6z"/>
	<path fill="#F8F6F0" d="M343.1,181.9v82.8h6v0c0.3,0,0.5,0,0.8,0h0.2c13.5,0,25.6-5.6,34.4-14.5v14.5h0V300
		c0,58-47.2,105.2-105.2,105.2S174.1,358,174.1,300c0-58,47.2-105.2,105.2-105.2h31.9V112h-31.9c-103.7,0-188,84.3-188,188
		c0,103.7,84.3,188,188,188s188-84.3,188-188h0v-35.4v-14.5c8.7,8.9,20.9,14.5,34.4,14.5h0.2c0.3,0,0.5,0,0.8,0v0h6v-82.8L425.9,112
		L343.1,181.9z"/>
</g>
</svg>
