<?xml version="1.0" encoding="utf-8"?>
<!-- Generator: Adobe Illustrator 19.1.0, SVG Export Plug-In . SVG Version: 6.00 Build 0)  -->
<svg version="1.1" baseProfile="tiny" id="Layer_1" xmlns="http://www.w3.org/2000/svg" xmlns:xlink="http://www.w3.org/1999/xlink"
	 x="0px" y="0px" viewBox="0 0 600 600" xml:space="preserve">
<g>
	<path fill="#58B89E" d="M300,0C134.3,0,0,134.3,0,300s134.3,300,300,300s300-134.3,300-300S465.7,0,300,0z M382.2,417.2L300,486.5
		l-82.1-69.3v-82.1h6v0c0.3,0,0.5,0,0.8,0h0.2c13.4,0,25.4,5.5,34.1,14.4v-14.4V113.5h82.2v221.6h0v14.4
		c8.7-8.9,20.7-14.4,34.1-14.4h0.2c0.3,0,0.5,0,0.8,0v0h6V417.2z"/>
	<path fill="#F8F6F0" d="M376.2,335.1c-0.3,0-0.5,0-0.8,0h-0.2c-13.4,0-25.4,5.5-34.1,14.4v-14.4h0V113.5h-82.2v221.6v14.4
		c-8.7-8.9-20.7-14.4-34.1-14.4h-0.2c-0.3,0-0.5,0-0.8,0v0h-6v82.1l82.1,69.3l82.2-69.3v-82.1L376.2,335.1L376.2,335.1z"/>
</g>
</svg>
