<?xml version="1.0" encoding="utf-8"?>
<!-- Generator: Adobe Illustrator 19.1.0, SVG Export Plug-In . SVG Version: 6.00 Build 0)  -->
<svg version="1.1" baseProfile="tiny" id="Layer_1" xmlns="http://www.w3.org/2000/svg" xmlns:xlink="http://www.w3.org/1999/xlink"
	 x="0px" y="0px" viewBox="0 0 160 160" xml:space="preserve">
<path fill="#FFFFFF" d="M160,80c0-44.2-35.8-80-80-80S0,35.8,0,80c0,44.2,35.8,80,80,80S160,124.2,160,80z M63.1,125.4V86.3h0v-5.9
	c-3.6,3.6-8.5,5.9-14,5.9H49c-0.1,0-0.2,0-0.3,0v0h-2.4l0-26l32.9-25.8l32.9,25.8v26h-2.4v0c-0.1,0-0.2,0-0.3,0h-0.1
	c-5.5,0-10.4-2.3-14-5.9v5.9v39.1H63.1z"/>
</svg>
