<?xml version="1.0" encoding="utf-8"?>
<!-- Generator: Adobe Illustrator 19.1.0, SVG Export Plug-In . SVG Version: 6.00 Build 0)  -->
<svg version="1.1" baseProfile="tiny" id="Layer_1" xmlns="http://www.w3.org/2000/svg" xmlns:xlink="http://www.w3.org/1999/xlink"
	 x="0px" y="0px" viewBox="0 0 160 160" xml:space="preserve">
<path fill="#FFFFFF" d="M80,160c44.2,0,80-35.8,80-80S124.2,0,80,0S0,35.8,0,80S35.8,160,80,160z M74.9,49h23.9v2.2h0
	c0,0.1,0,0.2,0,0.3v0.1c0,5-2.1,9.6-5.4,12.8L78.6,79.2L93.4,94c3.3,3.3,5.4,7.8,5.4,12.8v0.1c0,0.1,0,0.2,0,0.3h0v2.2H74.9
	L51.2,79.2L74.9,49z"/>
</svg>
