<?xml version="1.0" encoding="utf-8"?>
<!-- Generator: Adobe Illustrator 19.1.0, SVG Export Plug-In . SVG Version: 6.00 Build 0)  -->
<svg version="1.1" baseProfile="tiny" id="Layer_1" xmlns="http://www.w3.org/2000/svg" xmlns:xlink="http://www.w3.org/1999/xlink"
	 x="0px" y="0px" viewBox="0 0 1256 1130.3" xml:space="preserve">
<path fill="#FFFFFF" d="M249.1,0l249.1,210.2v249.1h-18.1v-0.1c-0.8,0-1.6,0-2.3,0.1h-0.7c-40.5-0.1-77.1-16.8-103.4-43.6v43.6
	v106.4c0,174.6,142,316.6,316.6,316.6s316.6-142,316.6-316.6s-142-316.6-316.6-316.6h-96V0h96C1002.2,0,1256,253.8,1256,565.7
	s-253.8,565.7-565.7,565.7c-311.9,0-565.7-253.8-565.7-565.7V459.3v-43.6c-26.3,26.8-62.9,43.6-103.4,43.6h-0.7
	c-0.8,0-1.6,0-2.3-0.1v0.1H0V210.2L249.1,0z"/>
</svg>
