<?xml version="1.0" encoding="utf-8"?>
<!-- Generator: Adobe Illustrator 19.1.0, SVG Export Plug-In . SVG Version: 6.00 Build 0)  -->
<svg version="1.1" baseProfile="tiny" id="Layer_1" xmlns="http://www.w3.org/2000/svg" xmlns:xlink="http://www.w3.org/1999/xlink"
	 x="0px" y="0px" viewBox="0 0 160 160" xml:space="preserve">
<path fill="#FFFFFF" d="M0,80c0,44.2,35.8,80,80,80s80-35.8,80-80c0-44.2-35.8-80-80-80S0,35.8,0,80z M96.9,34.6v39.1h0v5.9
	c3.6-3.6,8.5-5.9,14-5.9h0.1c0.1,0,0.2,0,0.3,0v0h2.4v26l-32.9,25.8L47.9,99.7v-26h2.4v0c0.1,0,0.2,0,0.3,0h0.1
	c5.5,0,10.4,2.3,14,5.9v-5.9V34.6H96.9z"/>
</svg>
