<?xml version="1.0" encoding="utf-8"?>
<!-- Generator: Adobe Illustrator 19.1.0, SVG Export Plug-In . SVG Version: 6.00 Build 0)  -->
<svg version="1.1" baseProfile="tiny" id="Layer_1" xmlns="http://www.w3.org/2000/svg" xmlns:xlink="http://www.w3.org/1999/xlink"
	 x="0px" y="0px" viewBox="0 0 160 160" xml:space="preserve">
<path fill="#FFFFFF" d="M80,0C35.8,0,0,35.8,0,80s35.8,80,80,80s80-35.8,80-80S124.2,0,80,0z M85.1,111H61.2v-2.2h0
	c0-0.1,0-0.2,0-0.3v-0.1c0-5,2.1-9.6,5.4-12.8l14.7-14.7L66.6,66c-3.3-3.3-5.4-7.8-5.4-12.8v-0.1c0-0.1,0-0.2,0-0.3h0v-2.2h23.9
	l23.7,30.2L85.1,111z"/>
</svg>
