<?xml version="1.0" encoding="utf-8"?>
<!-- Generator: Adobe Illustrator 19.1.0, SVG Export Plug-In . SVG Version: 6.00 Build 0)  -->
<svg version="1.1" baseProfile="tiny" id="Layer_1" xmlns="http://www.w3.org/2000/svg" xmlns:xlink="http://www.w3.org/1999/xlink"
	 x="0px" y="0px" viewBox="0 0 160 160" xml:space="preserve">
<g>
	<path fill="none" d="M91.5,46.8v1.8h0c0,0.1,0,0.2,0,0.2V49c0,4.1,1.7,7.9,4.4,10.5h-2.5l-30.1,0h-0.8c-11.9,0-22.6,9.7-22.6,21.6
		v13.7v18.4h24.6V94.7h0c0-4.3-1.8-8.2-4.6-11h36c-2.7,2.7-4.4,6.4-4.4,10.5v0.1c0,0.1,0,0.2,0,0.2h0v1.8h19.6l19.4-24.8l-19.4-24.8
		H91.5z"/>
	<path fill="#58B89E" d="M80,0C35.8,0,0,35.8,0,80c0,44.2,35.8,80,80,80s80-35.8,80-80C160,35.8,124.2,0,80,0z M111.1,96.4H91.5
		v-1.8h0c0-0.1,0-0.2,0-0.2v-0.1c0-4.1,1.7-7.8,4.4-10.5h-36c2.9,2.8,4.6,6.7,4.6,11h0v18.4H39.9V94.7V81.1
		c0-11.9,10.6-21.6,22.6-21.6h0.8l30.1,0h2.5c-2.7-2.7-4.4-6.4-4.4-10.5v-0.1c0-0.1,0-0.2,0-0.2h0v-1.8h19.6l19.4,24.8L111.1,96.4z"
		/>
</g>
</svg>
