<?xml version="1.0" encoding="utf-8"?>
<!-- Generator: Adobe Illustrator 19.1.0, SVG Export Plug-In . SVG Version: 6.00 Build 0)  -->
<svg version="1.1" baseProfile="tiny" id="Layer_1" xmlns="http://www.w3.org/2000/svg" xmlns:xlink="http://www.w3.org/1999/xlink"
	 x="0px" y="0px" viewBox="0 0 849.4 1131.4" xml:space="preserve">
<path fill="#FFFFFF" d="M502.6,0H0v311h101.6v-0.1c1.5,0,3.1,0.1,4.6,0.1c69.3,0,132-28.5,177-74.3v219.5
	c-45-45.9-107.6-74.3-177-74.3c-1.5,0-3.1,0.1-4.6,0.1v-0.2H0v367.9h101.6v-0.1c1.5,0,3.1,0.1,4.6,0.1c69.3,0,132-28.5,177-74.3
	v219.5c-45-45.9-107.6-74.3-177-74.3c-1.5,0-3.1,0.1-4.6,0.1v-0.2H0v311.1h502.6v0c191.5,0,346.8-155.1,346.8-346.4
	c0-83.2-29.4-159.6-78.3-219.3c49-59.7,78.3-136.1,78.3-219.3C849.4,155.1,694.1,0,502.6,0z"/>
</svg>
