<?xml version="1.0" encoding="utf-8"?>
<!-- Generator: Adobe Illustrator 19.1.0, SVG Export Plug-In . SVG Version: 6.00 Build 0)  -->
<svg version="1.1" baseProfile="tiny" id="Layer_1" xmlns="http://www.w3.org/2000/svg" xmlns:xlink="http://www.w3.org/1999/xlink"
	 x="0px" y="0px" viewBox="0 0 921.6 1130.4" xml:space="preserve">
<path fill="#FFFFFF" d="M921.6,409.4c0,196.2-159,355.2-355.1,355.2l-46.7,0c-58,0-110.4-23.8-148-62.2v183.7
	c37.6-38.4,90-62.2,148-62.2c1.3,0,33.1,0.1,34.3,0.1l361.4-0.1v306.6H0V794.3c0-196.2,159-355.2,355.1-355.2l7.4,0
	c58,0,110.4,23.8,148,62.2v-98.9V297.7c-43.6,44.5-104.2,72.1-171.4,72.1c-1.5,0-3-0.1-4.4-0.1v0.2H101.1C121.5,161.7,297-1,510.5-1
	c224.5,0,406.8,179.9,411.1,403.4V409.4z"/>
</svg>
